<svg width="100%" height="100%" viewBox="0 0 500 500" xmlns="http://www.w3.org/2000/svg">
  <path fill="currentColor" d="M 132.778 471.858 L 249.997 354.613 L 367.217 471.858 C 381.662 486.305 400.588 493.531 419.52 493.531 C 438.449 493.531 457.372 486.305 471.823 471.858 C 500.726 442.999 500.726 396.148 471.823 367.255 L 354.61 250 L 471.819 132.744 C 500.721 103.848 500.721 57.003 471.819 28.143 C 442.921 -0.755 396.109 -0.755 367.217 28.143 L 249.997 145.39 L 132.778 28.143 C 103.883 -0.755 57.068 -0.755 28.177 28.143 C -0.725 57.003 -0.725 103.853 28.177 132.744 L 145.386 250 L 28.177 367.252 C -0.725 396.148 -0.725 442.999 28.177 471.853 C 42.623 486.3 61.546 493.527 80.48 493.527 C 99.409 493.531 118.333 486.305 132.778 471.858 Z" />
</svg>
